<?xml version="1.0" encoding="utf-8"?>
<!-- Generator: Adobe Illustrator 28.0.0, SVG Export Plug-In . SVG Version: 6.00 Build 0)  -->
<svg version="1.1" id="Capa_1" xmlns="http://www.w3.org/2000/svg" xmlns:xlink="http://www.w3.org/1999/xlink" x="0px" y="0px"
	 viewBox="0 0 512 512" style="enable-background:new 0 0 512 512;" xml:space="preserve">
<style type="text/css">
	.st0{fill:#FFFFFF;}
</style>
<g>
	<path class="st0" d="M492,236.1H222.5c-9.1-38.6-43.8-67.4-85.2-67.4s-76.1,28.8-85.2,67.4H20c-11,0-20,9-20,20c0,11,9,20,20,20
		h32.1c9.1,38.6,43.8,67.4,85.2,67.4s76.1-28.8,85.2-67.4H492c11,0,20-9,20-20S503,236.1,492,236.1z M137.3,303.4
		c-26.2,0-47.5-21.2-47.5-47.4s21.3-47.4,47.5-47.4c26.2,0,47.5,21.2,47.5,47.4S163.5,303.4,137.3,303.4z"/>
	<path class="st0" d="M20,139h269.5c9.1,38.6,43.8,67.4,85.2,67.4s76.1-28.8,85.2-67.4H492c11,0,20-9,20-20s-9-20-20-20h-32.1
		c-9.1-38.6-43.8-67.4-85.2-67.4S298.6,60.5,289.5,99H20c-11,0-20,9-20,20S9,139,20,139L20,139z M374.7,71.7
		c26.2,0,47.5,21.2,47.5,47.4s-21.3,47.4-47.5,47.4c-26.2,0-47.5-21.2-47.5-47.4S348.5,71.7,374.7,71.7z"/>
	<path class="st0" d="M492,373.1h-32.1c-3.7-15.8-11.8-30.4-23.6-42.1c-16.5-16.3-38.4-25.3-61.6-25.3c-41.4,0-76.1,28.8-85.2,67.4
		H20c-11,0-20,9-20,20s9,20,20,20h269.5c8.6,36.5,40.3,64.6,79.2,67.2c0.5,0,0.9,0,1.4,0c10.4,0,19.2-8.1,19.9-18.7
		c0.7-11-7.6-20.6-18.6-21.3c-24.8-1.7-44.2-22.4-44.2-47.3c0-26.1,21.3-47.4,47.5-47.4c25.9,0,47.2,21,47.5,46.8v0.6
		c0,11,9,20,20,20H492c11,0,20-9,20-20S503,373.1,492,373.1L492,373.1z"/>
</g>
</svg>
