<?xml version="1.0" encoding="utf-8"?>
<!-- Generator: Adobe Illustrator 28.0.0, SVG Export Plug-In . SVG Version: 6.00 Build 0)  -->
<svg version="1.1" id="Capa_1" xmlns="http://www.w3.org/2000/svg" xmlns:xlink="http://www.w3.org/1999/xlink" x="0px" y="0px"
	 viewBox="0 0 512 512" style="enable-background:new 0 0 512 512;" xml:space="preserve">
<style type="text/css">
	.st0{fill:#FFFFFF;}
</style>
<g>
	<path class="st0" d="M125,123.3c-2.4-7.9-9.6-13.6-17.9-14.2c-8.2-0.5-16.1,4.2-19.5,11.7c-3.5,7.7-1.7,17.1,4.5,22.8
		c6.1,5.8,15.5,7,22.9,3.1C123.6,142.4,127.8,132.3,125,123.3z"/>
	<path class="st0" d="M173.4,149c8.3,0.9,16.5-3.8,20-11.4c3.5-7.4,2-16.5-3.7-22.5c-6-6.2-15.5-7.8-23.2-4
		c-7.4,3.7-12,11.8-11,20.1C156.6,140.5,164.1,148.1,173.4,149L173.4,149z"/>
	<path class="st0" d="M226.8,134.9c2.4,7.9,9.7,13.7,18,14.2c8.4,0.5,16.4-4.5,19.6-12.3c3.2-7.6,1.2-16.6-4.8-22.2
		c-6.2-5.8-15.6-7-23.1-3C228.2,115.9,224,125.9,226.8,134.9L226.8,134.9z"/>
	<path class="st0" d="M429.1,129.1c0-11-9-20-20-20h-70.5c-11,0-20,9-20,20s9,20,20,20h70.5C420.1,149.1,429.1,140.1,429.1,129.1
		L429.1,129.1z"/>
	<path class="st0" d="M492,323.2c11,0,20-9,20-20V108.8c0-44.1-35.9-80-80-80H80c-44.1,0-80,35.9-80,80v294.4c0,44.1,35.9,80,80,80
		h352c44.1,0,80-35.9,80-80c0-11-9-20-20-20s-20,9-20,20c0,22.1-17.9,40-40,40H80c-22.1,0-40-17.9-40-40V108.8c0-22.1,17.9-40,40-40
		h352c22.1,0,40,17.9,40,40v194.4C472,314.2,481,323.2,492,323.2z"/>
	<path class="st0" d="M187.8,402.2c11,0,20-9,20-20c0-26.8,21.6-48.7,48.2-48.7s48.2,21.8,48.2,48.7c0,11,9,20,20,20s20-9,20-20
		c0-29-13.9-54.8-35.4-71c13.2-13.5,21.3-31.9,21.3-52.2c0-41.1-33.3-74.5-74.1-74.5s-74.1,33.4-74.1,74.5
		c0,20.3,8.1,38.8,21.3,52.2c-21.5,16.2-35.4,42-35.4,71C167.8,393.2,176.8,402.2,187.8,402.2L187.8,402.2z M221.9,259
		c0-19,15.3-34.5,34.1-34.5s34.1,15.5,34.1,34.5c0,19-15.3,34.5-34.1,34.5S221.9,278,221.9,259L221.9,259z"/>
</g>
</svg>
