<?xml version="1.0" encoding="utf-8"?>
<!-- Generator: Adobe Illustrator 28.0.0, SVG Export Plug-In . SVG Version: 6.00 Build 0)  -->
<svg version="1.1" id="Layer_1" xmlns="http://www.w3.org/2000/svg" xmlns:xlink="http://www.w3.org/1999/xlink" x="0px" y="0px"
	 viewBox="0 0 512 512" style="enable-background:new 0 0 512 512;" xml:space="preserve">
<style type="text/css">
	.st0{fill:#FFFFFF;}
</style>
<path class="st0" d="M135,418c-4.1,0-8.3-0.8-12.3-2.5c-12-5-19.8-16.6-19.8-29.6v-34c0-12.1-9.9-22-22-22c-44.1,0-80-35.9-80-80V80
	C1,35.9,36.9,0,81,0h272c44.1,0,80,35.9,80,80v170c0,44.1-35.9,80-80,80h-86.4c-19.6,0-37.9,7.6-51.8,21.4l-57.2,57.2
	C151.5,414.8,143.3,418,135,418z M81,40c-22.1,0-40,17.9-40,40v170c0,22.1,17.9,40,40,40c34.2,0,62,27.8,62,62v14.7l43.5-43.5
	c21.4-21.4,49.8-33.2,80.1-33.2H353c22.1,0,40-17.9,40-40V80c0-22.1-17.9-40-40-40H81z M391.2,509.5c12-5,19.8-16.6,19.8-29.6v-34
	c0-12.1,9.9-22,22-22c44.1,0,80-35.9,80-80V134c0-11-9-20-20-20s-20,9-20,20v210c0,22.1-17.9,40-40,40c-34.2,0-62,27.8-62,62v14.7
	l-43.5-43.5C306,395.8,277.6,384,247.4,384H231c-11,0-20,8.9-20,20c0,11,9,20,20,20h16.4c19.6,0,37.9,7.6,51.8,21.4l57.2,57.2
	c6.1,6.1,14.3,9.4,22.6,9.4C383,512,387.2,511.2,391.2,509.5z M238,166c0-11-9-20-20-20c-11,0-20,9-20,20c0,11,9,20,20,20
	C229,186,238,177.1,238,166z M318,166c0-11-9-20-20-20c-11,0-20,9-20,20c0,11,8.9,20,20,20C309,186,318,177.1,318,166z M158,166
	c0-11-9-20-20-20c-11,0-20,9-20,20c0,11,9,20,20,20C149,186,158,177.1,158,166z"/>
</svg>
