<?xml version="1.0" encoding="utf-8"?>
<!-- Generator: Adobe Illustrator 28.0.0, SVG Export Plug-In . SVG Version: 6.00 Build 0)  -->
<svg version="1.1" id="Capa_1" xmlns="http://www.w3.org/2000/svg" xmlns:xlink="http://www.w3.org/1999/xlink" x="0px" y="0px"
	 viewBox="0 0 512 512" style="enable-background:new 0 0 512 512;" xml:space="preserve">
<style type="text/css">
	.st0{fill:#23243A;}
</style>
<g>
	<path class="st0" d="M148.2,256c0,59.7,48.4,108.3,107.8,108.3S363.8,315.7,363.8,256S315.4,147.7,256,147.7S148.2,196.3,148.2,256
		z M323.8,256c0,37.6-30.4,68.3-67.8,68.3s-67.8-30.6-67.8-68.3s30.4-68.3,67.8-68.3S323.8,218.4,323.8,256z"/>
	<path class="st0" d="M509.1,245.6c-1.1-1.8-26.8-43.9-70.1-86.4c-25.7-25.3-52.4-45.5-79.2-60C325.3,80.5,290.4,71,256,71
		s-69.3,9.5-103.8,28.2c-26.9,14.6-53.5,34.8-79.2,60c-43.3,42.5-69,84.6-70.1,86.4C-1,252-1,260,2.9,266.4
		c1.1,1.8,26.8,43.9,70.1,86.4c25.7,25.3,52.4,45.5,79.2,60C186.7,431.5,221.6,441,256,441c48.7,0,97.7-18.7,145.8-55.7
		c8.8-6.7,10.4-19.3,3.7-28s-19.3-10.4-28-3.7C336.5,385,295.6,401,256,401C151.8,401,67.8,290.8,43.9,256
		C67.8,221.2,151.8,111,256,111s188.2,110.3,212.1,145c-5.1,7.4-12.8,18.2-22.8,30.5c-7,8.6-5.7,21.2,2.9,28.1
		c8.6,7,21.2,5.7,28.1-2.9c20.7-25.4,32.4-44.6,32.8-45.4C513,260,513,252,509.1,245.6L509.1,245.6z"/>
</g>
</svg>
