<?xml version="1.0" encoding="utf-8"?>
<!-- Generator: Adobe Illustrator 28.0.0, SVG Export Plug-In . SVG Version: 6.00 Build 0)  -->
<svg version="1.1" id="Capa_1" xmlns="http://www.w3.org/2000/svg" xmlns:xlink="http://www.w3.org/1999/xlink" x="0px" y="0px"
	 viewBox="0 0 512 512" style="enable-background:new 0 0 512 512;" xml:space="preserve">
<style type="text/css">
	.st0{fill:#FFFFFF;}
</style>
<g>
	<g>
		<path class="st0" d="M302,0C186.2,0,92,94.2,92,210c0,50.9,18.2,97.7,48.5,134.1L5.9,477.8c-7.8,7.8-7.9,20.4-0.1,28.3
			C9.7,510,14.9,512,20,512c5.1,0,10.2-1.9,14.1-5.8l134.8-133.9C205.1,402.1,251.5,420,302,420c36,0,71.6-9.3,102.8-26.8
			c9.6-5.4,13-17.6,7.6-27.2c-5.4-9.6-17.6-13-27.2-7.6c-25.3,14.2-54,21.7-83.2,21.7c-93.7,0-170-76.3-170-170S208.3,40,302,40
			s170,76.3,170,170c0,29.5-7.7,58.6-22.2,84.1c-5.5,9.6-2.1,21.8,7.5,27.3c9.6,5.5,21.8,2.1,27.3-7.5c18-31.5,27.5-67.4,27.5-103.9
			C512,94.2,417.8,0,302,0z"/>
	</g>
</g>
</svg>
