<?xml version="1.0" encoding="utf-8"?>
<!-- Generator: Adobe Illustrator 28.0.0, SVG Export Plug-In . SVG Version: 6.00 Build 0)  -->
<svg version="1.1" id="Layer_1" xmlns="http://www.w3.org/2000/svg" xmlns:xlink="http://www.w3.org/1999/xlink" x="0px" y="0px"
	 viewBox="0 0 512 512" style="enable-background:new 0 0 512 512;" xml:space="preserve">
<style type="text/css">
	.st0{fill:#FFFFFF;}
</style>
<path class="st0" d="M256,512C131.5,513.2,30.4,386.8,32,268V111c0-7.9,4.6-15,11.8-18.2l203-91c5.2-2.3,11.1-2.3,16.3,0l205,91
	c7.2,3.2,11.9,10.4,11.9,18.3v157c0,44-12.5,88.4-36.2,128.2c-5.6,9.5-17.9,12.6-27.4,7c-9.5-5.6-12.6-17.9-7-27.4
	c20-33.7,30.6-71,30.6-107.8V124L255,41.9L72,123.9v144c-0.2,146.8,159.4,262.7,280.2,171.8c8.9-6.5,21.4-4.5,27.9,4.4
	c6.5,8.9,4.5,21.4-4.4,27.9C340,498.2,298.6,512,256,512z M340,373H172c-11,0-20-9-20-20V253c0-25.5,19.2-46.7,44-49.6V187
	c3-78.2,117-78.1,120,0v16.4c24.8,3,44,24.1,44,49.6v100C360,364,351.1,373,340,373z M192,333h128v-80c0-5.5-4.5-10-10-10H202
	c-5.5,0-10,4.5-10,10V333z M236,203h40v-16c-1-25.2-39-25.1-40,0V203z"/>
</svg>
