<?xml version="1.0" encoding="utf-8"?>
<!-- Generator: Adobe Illustrator 28.0.0, SVG Export Plug-In . SVG Version: 6.00 Build 0)  -->
<svg version="1.1" id="Layer_1" xmlns="http://www.w3.org/2000/svg" xmlns:xlink="http://www.w3.org/1999/xlink" x="0px" y="0px"
	 viewBox="0 0 512 512" style="enable-background:new 0 0 512 512;" xml:space="preserve">
<style type="text/css">
	.st0{fill:#23243A;}
</style>
<path class="st0" d="M390.6,504c-8.2,0-16.3-2.5-23.5-7.5l-107.3-74.7c-2.3-1.6-5.4-1.6-7.8,0l-107.3,74.7
	c-14.6,10.1-33.2,10-47.6-0.5c-14.4-10.4-20.3-28.2-15.2-45.2l37.9-125.4c0.8-2.7-0.1-5.6-2.3-7.3L16,239.7
	C1.9,228.8-3.5,210.8,2.3,193.8c5.8-16.9,21-27.9,38.8-27.9h126.8c3,0,5.5-1.7,6.4-4.3l42.8-125.8C222.9,18.9,238.1,8,256,8
	s33.1,10.9,38.9,27.8l42.8,125.8c0.9,2.6,3.4,4.3,6.4,4.3h126.8c17.8,0,33,10.9,38.8,27.9s0.4,35-13.7,45.9l-101.6,78.4
	c-2.2,1.7-3.2,4.7-2.3,7.3l3.3,11c3.2,10.6-2.8,21.7-13.4,24.9c-10.6,3.2-21.7-2.8-24.9-13.4l-3.3-11c-5.6-18.5,0.9-38.8,16.2-50.6
	L471.5,208c0.5-0.4,0.4-0.4,0.4-0.8c0-0.6-0.4-1.2-0.5-1.2c0,0-0.1-0.1-0.5-0.1H344.1c-20.1,0-37.9-12.6-44.3-31.4L257,48.7
	c-0.2-0.5-0.3-0.7-1-0.7c-0.8,0-0.8,0.2-1,0.7l-42.8,125.8c-6.4,18.8-24.2,31.4-44.3,31.4H41.1c-0.4,0-0.5,0.1-0.5,0.1
	c-0.1,0.1-0.5,0.6-0.6,1.2c0,0.3,0,0.4,0.4,0.8L142,286.4c15.3,11.8,21.8,32.1,16.2,50.6l-37.9,125.4c-0.2,0.5-0.2,0.8,0.4,1.2
	c0.6,0.4,0.8,0.3,1.2,0l107.3-74.7c16-11.1,37.5-11.1,53.5,0L390,463.7c0.4,0.3,0.6,0.4,1.2,0c0.6-0.5,0.6-0.7,0.4-1.2l-5.6-18.4
	c-3.2-10.6,2.8-21.7,13.4-24.9c10.6-3.2,21.7,2.8,24.9,13.4l5.6,18.4c5.1,17-0.8,34.7-15.2,45.2C407.4,501.3,399,504,390.6,504z"/>
</svg>
