<?xml version="1.0" encoding="utf-8"?>
<!-- Generator: Adobe Illustrator 28.0.0, SVG Export Plug-In . SVG Version: 6.00 Build 0)  -->
<svg version="1.1" id="Layer_1" xmlns="http://www.w3.org/2000/svg" xmlns:xlink="http://www.w3.org/1999/xlink" x="0px" y="0px"
	 viewBox="0 0 512 512" style="enable-background:new 0 0 512 512;" xml:space="preserve">
<style type="text/css">
	.st0{fill:#FFFFFF;}
</style>
<path class="st0" d="M100,160c33.1,0,60-26.9,60-60s-26.9-60-60-60s-60,26.9-60,60S66.9,160,100,160z M100,80c11,0,20,9,20,20
	s-9,20-20,20s-20-9-20-20S89,80,100,80z M412,160c33.1,0,60-26.9,60-60s-26.9-60-60-60s-60,26.9-60,60S378.9,160,412,160z M412,80
	c11,0,20,9,20,20s-9,20-20,20s-20-9-20-20S401,80,412,80z M512,239v88c0,26.1-16.7,48.3-40,56.6V492c0,11-9,20-20,20s-20-9-20-20
	V367c0-11,9-20,20-20c11,0,20-9,20-20v-88c0-11-9-20-20-20h-36c-11,0-20-9-20-20s9-20,20-20h36C485.1,179,512,205.9,512,239z
	 M392,367v125c0,11-9,20-20,20s-20-9-20-20V383.6c-11.8-4.2-21.9-12-29-22c-2.3,1.1-4.6,2.2-7,3V492c0,11-9,20-20,20s-20-9-20-20
	V348c0-11,9-20,20-20c11,0,20-9,20-20V199c0-11-9-20-20-20h-80c-11,0-20,9-20,20v109c0,11,9,20,20,20c11,0,20,9,20,20v144
	c0,11-9,20-20,20s-20-9-20-20V364.6c-2.4-0.9-4.7-1.9-7-3c-7.1,10-17.2,17.8-29,22V492c0,11-9,20-20,20s-20-9-20-20V367
	c0-11,9-20,20-20c10.3,0,18.8-7.8,19.9-17.8c-2.5-6.6-3.9-13.7-3.9-21.2V199c0-33.1,26.9-60,60-60h80c33.1,0,60,26.9,60,60v109
	c0,7.5-1.4,14.6-3.9,21.2c1.1,10,9.6,17.8,19.9,17.8C383,347,392,356,392,367z M116,199c0,11-9,20-20,20H60c-11,0-20,9-20,20v88
	c0,11,9,20,20,20c11,0,20,9,20,20v125c0,11-9,20-20,20s-20-9-20-20V383.6C16.7,375.3,0,353.1,0,327v-88c0-33.1,26.9-60,60-60h36
	C107,179,116,188,116,199z M256,120c33.1,0,60-26.9,60-60S289.1,0,256,0s-60,26.9-60,60S222.9,120,256,120z M256,40c11,0,20,9,20,20
	s-9,20-20,20s-20-9-20-20S245,40,256,40z"/>
</svg>
